<?xml version="1.0" standalone="no"?><svg xmlns="http://www.w3.org/2000/svg" viewBox="0 0 1440 320"><path fill="#ef8553" fill-opacity="1" d="M0,256L40,245.3C80,235,160,213,240,181.3C320,149,400,107,480,117.3C560,128,640,192,720,197.3C800,203,880,149,960,160C1040,171,1120,245,1200,240C1280,235,1360,149,1400,106.7L1440,64L1440,320L1400,320C1360,320,1280,320,1200,320C1120,320,1040,320,960,320C880,320,800,320,720,320C640,320,560,320,480,320C400,320,320,320,240,320C160,320,80,320,40,320L0,320Z"></path></svg>